# xmcd
#
# Track frame offsets: 
#        150
#        18439
#        28939
#        48051
#        66744
#
# Disc length: 1180 seconds
#
# Revision: 1
# Processed by: cddbd v1.5.2PL0 Copyright (c) Steve Scherf et al.
# Submitted via: ExactAudioCopy v1.0b3
#
DISCID=40049a05
DTITLE=Akaname - Filthlicker EP
DYEAR=2007
DGENRE=Technical Death Metal/Grindcore
TTITLE0=The Animus Obscene
TTITLE1=The Garden Path
TTITLE2=Eye Of The Liger
TTITLE3=Nanamasta
TTITLE4=Anomolos
EXTD=yy
EXTT0=
EXTT1=
EXTT2=
EXTT3=
EXTT4=
PLAYORDER=
